<svg width="15" height="16" viewBox="0 0 15 16" fill="none" xmlns="http://www.w3.org/2000/svg">
<path d="M13.1447 9.99633C12.7779 9.99633 12.4587 9.85588 12.187 9.57499C11.9289 9.2941 11.7998 8.95971 11.7998 8.57182V2.13141C11.7998 1.73014 11.9289 1.38906 12.187 1.10817C12.4451 0.827279 12.7644 0.686835 13.1447 0.686835C13.5251 0.686835 13.8444 0.827279 14.1025 1.10817C14.3606 1.38906 14.4897 1.73014 14.4897 2.13141L14.51 8.57182C14.51 8.95971 14.3742 9.2941 14.1025 9.57499C13.8444 9.85588 13.5251 9.99633 13.1447 9.99633ZM13.4096 15.0925C13.1108 15.3065 12.8119 15.4135 12.513 15.4135C12.1055 15.4135 11.7115 15.2129 11.3311 14.8116L5.36049 5.12088C4.88501 4.34509 4.45708 3.9572 4.0767 3.9572C3.60122 3.9572 3.37027 4.54573 3.38386 5.72279V14.1495C3.38386 15.1125 2.91517 15.5941 1.9778 15.5941C1.54308 15.5941 1.18307 15.467 0.897787 15.2129C0.626085 14.9453 0.490234 14.5909 0.490234 14.1495V3.63618C0.490234 2.67313 0.884202 1.87727 1.67214 1.24861C2.37856 0.686835 3.20046 0.405945 4.13783 0.405945C5.21105 0.405945 5.97861 0.780465 6.4405 1.5295L13.6542 12.9256C13.8851 13.2868 14.0006 13.6345 14.0006 13.9689C14.0006 14.4237 13.8036 14.7982 13.4096 15.0925Z" fill="white"/>
</svg>
