<svg width="31" height="31" viewBox="0 0 31 31" fill="none" xmlns="http://www.w3.org/2000/svg">
<path fill-rule="evenodd" clip-rule="evenodd" d="M26.3496 7.75001C26.3496 7.33893 26.1863 6.94468 25.8956 6.654C25.6049 6.36332 25.2107 6.20001 24.7996 6.20001H6.19961C5.78852 6.20001 5.39427 6.36332 5.10359 6.654C4.81291 6.94468 4.64961 7.33893 4.64961 7.75001C4.64961 8.1611 4.81291 8.55535 5.10359 8.84603C5.39427 9.13671 5.78852 9.30001 6.19961 9.30001H24.7996C25.2107 9.30001 25.6049 9.13671 25.8956 8.84603C26.1863 8.55535 26.3496 8.1611 26.3496 7.75001ZM26.3496 15.5C26.3496 15.0889 26.1863 14.6947 25.8956 14.404C25.6049 14.1133 25.2107 13.95 24.7996 13.95H15.4996C15.0885 13.95 14.6943 14.1133 14.4036 14.404C14.1129 14.6947 13.9496 15.0889 13.9496 15.5C13.9496 15.9111 14.1129 16.3053 14.4036 16.596C14.6943 16.8867 15.0885 17.05 15.4996 17.05H24.7996C25.2107 17.05 25.6049 16.8867 25.8956 16.596C26.1863 16.3053 26.3496 15.9111 26.3496 15.5ZM26.3496 23.25C26.3496 22.8389 26.1863 22.4447 25.8956 22.154C25.6049 21.8633 25.2107 21.7 24.7996 21.7H6.19961C5.78852 21.7 5.39427 21.8633 5.10359 22.154C4.81291 22.4447 4.64961 22.8389 4.64961 23.25C4.64961 23.6611 4.81291 24.0553 5.10359 24.346C5.39427 24.6367 5.78852 24.8 6.19961 24.8H24.7996C25.2107 24.8 25.6049 24.6367 25.8956 24.346C26.1863 24.0553 26.3496 23.6611 26.3496 23.25Z" fill="white"/>
</svg>
