<svg width="31" height="31" viewBox="0 0 31 31" fill="none" xmlns="http://www.w3.org/2000/svg">
<path d="M5.90931 5.90938C6.27265 5.54615 6.76537 5.3421 7.27913 5.3421C7.79288 5.3421 8.28561 5.54615 8.64894 5.90938L15.4999 12.7604L22.3509 5.90938C22.7164 5.55644 23.2058 5.36116 23.7138 5.36557C24.2218 5.36998 24.7077 5.57375 25.067 5.93298C25.4262 6.29221 25.63 6.77815 25.6344 7.28616C25.6388 7.79417 25.4435 8.28358 25.0906 8.649L18.2396 15.5L25.0906 22.351C25.4435 22.7164 25.6388 23.2058 25.6344 23.7138C25.63 24.2218 25.4262 24.7078 25.067 25.067C24.7077 25.4263 24.2218 25.63 23.7138 25.6344C23.2058 25.6388 22.7164 25.4436 22.3509 25.0906L15.4999 18.2396L8.64894 25.0906C8.28352 25.4436 7.79411 25.6388 7.2861 25.6344C6.77809 25.63 6.29214 25.4263 5.93292 25.067C5.57369 24.7078 5.36992 24.2218 5.36551 23.7138C5.36109 23.2058 5.55638 22.7164 5.90931 22.351L12.7603 15.5L5.90931 8.649C5.54609 8.28567 5.34204 7.79294 5.34204 7.27919C5.34204 6.76543 5.54609 6.27271 5.90931 5.90938Z" fill="white"/>
</svg>
