<svg width="9" height="11" viewBox="0 0 9 11" fill="none" xmlns="http://www.w3.org/2000/svg">
<path d="M7.01018 2.08192C6.63456 1.70843 6.12693 1.49796 5.59723 1.49608C5.06754 1.49421 4.55843 1.70109 4.18018 2.07192L0.85018 5.34392C0.755759 5.43688 0.628356 5.48865 0.495854 5.4879C0.363352 5.48715 0.236543 5.43395 0.14318 5.33992C0.0970347 5.2934 0.0605432 5.23822 0.0358052 5.17754C0.0110672 5.11687 -0.00142876 5.0519 -0.000964062 4.98638C-0.000499367 4.92086 0.0129168 4.85608 0.0385129 4.79576C0.064109 4.73544 0.10138 4.68078 0.14818 4.63492L3.47718 1.36392C4.04357 0.807968 4.80621 0.497581 5.59985 0.500014C6.39349 0.502448 7.15421 0.817505 7.71718 1.37692C7.99646 1.65452 8.2181 1.9846 8.36934 2.34818C8.52058 2.71175 8.59844 3.10164 8.59844 3.49542C8.59844 3.8892 8.52058 4.27909 8.36934 4.64266C8.2181 5.00624 7.99646 5.33632 7.71718 5.61392L3.38518 9.92792C3.01683 10.2941 2.51855 10.4996 1.99918 10.4996C1.47981 10.4996 0.981532 10.2941 0.61318 9.92792C0.431254 9.74699 0.286885 9.53188 0.188372 9.29497C0.0898582 9.05805 0.0391438 8.804 0.0391438 8.54742C0.0391438 8.29084 0.0898582 8.03679 0.188372 7.79987C0.286885 7.56296 0.431254 7.34785 0.61318 7.16692L4.65318 3.14392C4.74703 3.05073 4.87392 2.99844 5.00618 2.99844C5.13844 2.99844 5.26533 3.05073 5.35918 3.14392C5.4055 3.19009 5.44225 3.24495 5.46733 3.30536C5.49241 3.36576 5.50532 3.43052 5.50532 3.49592C5.50532 3.56132 5.49241 3.62608 5.46733 3.68649C5.44225 3.74689 5.4055 3.80175 5.35918 3.84792L1.32018 7.87092C1.23102 7.95958 1.16026 8.06499 1.11197 8.18108C1.06369 8.29718 1.03883 8.42168 1.03883 8.54742C1.03883 8.67316 1.06369 8.79766 1.11197 8.91376C1.16026 9.02985 1.23102 9.13526 1.32018 9.22392C1.5007 9.40394 1.74524 9.50503 2.00018 9.50503C2.25512 9.50503 2.49966 9.40394 2.68018 9.22392L7.01018 4.90992C7.19655 4.72461 7.34445 4.50429 7.44537 4.26163C7.54629 4.01896 7.59825 3.75874 7.59825 3.49592C7.59825 3.2331 7.54629 2.97288 7.44537 2.73021C7.34445 2.48755 7.19655 2.26723 7.01018 2.08192Z" fill="white"/>
</svg>
