<svg width="9" height="9" viewBox="0 0 9 9" fill="none" xmlns="http://www.w3.org/2000/svg">
<path d="M6.50128 0.976055C6.89391 0.587649 7.52707 0.591076 7.91547 0.983708C8.30388 1.37634 8.30045 2.0095 7.90782 2.3979L2.22044 8.02406C1.82781 8.41246 1.19465 8.40904 0.806244 8.01641C0.417839 7.62377 0.421265 6.99062 0.813897 6.60221L6.50128 0.976055Z" fill="#5A5A5A"/>
<path d="M0.939127 2.1996C0.569216 1.7895 0.601797 1.15717 1.0119 0.787258C1.422 0.417347 2.05433 0.449929 2.42424 0.860032L7.78251 6.80048C8.15242 7.21059 8.11984 7.84291 7.70973 8.21282C7.29963 8.58273 6.6673 8.55015 6.29739 8.14005L0.939127 2.1996Z" fill="#5A5A5A"/>
</svg>
