<svg width="342" height="371" viewBox="0 0 342 371" fill="none" xmlns="http://www.w3.org/2000/svg">
<path d="M308.695 234.264C299.747 234.264 291.959 230.834 285.331 223.972C279.035 217.111 275.887 208.943 275.887 199.468V42.148C275.887 32.3461 279.035 24.0145 285.331 17.1532C291.628 10.2919 299.416 6.86129 308.695 6.86129C317.974 6.86129 325.762 10.2919 332.058 17.1532C338.355 24.0145 341.503 32.3461 341.503 42.148L342 199.468C342 208.943 338.686 217.111 332.058 223.972C325.762 230.834 317.974 234.264 308.695 234.264ZM315.157 358.748C307.866 363.975 300.576 366.589 293.285 366.589C283.343 366.589 273.733 361.688 264.454 351.886L118.805 115.172C107.206 96.2215 96.7674 86.7463 87.4884 86.7463C75.8895 86.7463 70.2558 101.122 70.5872 129.874V335.713C70.5872 359.238 59.1541 371 36.2878 371C25.6831 371 16.9012 367.896 9.94186 361.688C3.31395 355.154 0 346.495 0 335.713V78.9049C0 55.3804 9.61047 35.9401 28.8314 20.5839C46.064 6.86129 66.1134 0 88.9797 0C115.16 0 133.884 9.14839 145.151 27.4452L321.122 305.818C326.756 314.639 329.573 323.134 329.573 331.302C329.573 342.411 324.767 351.56 315.157 358.748Z" fill="white" fill-opacity="0.01"/>
</svg>
